<svg width="24" height="24" viewBox="0 0 24 24" fill="none" xmlns="http://www.w3.org/2000/svg">
<g clip-path="url(#clip0_1296_2657)">
<g filter="url(#filter0_b_1296_2657)">
<mask id="path-1-inside-1_1296_2657" fill="white">
<path fill-rule="evenodd" clip-rule="evenodd" d="M19.8815 3.71997H12.0779H4.28164C3.49028 3.71997 3.27046 3.93924 3.27046 4.7067V12.966C3.27046 13.7261 3.49761 13.9527 4.245 13.9527H19.8815C20.6289 13.9527 20.856 13.7261 20.856 12.966V4.7067C20.856 3.94655 20.6289 3.71997 19.8815 3.71997ZM2.02482 19.8H12.0266H22.109C22.2849 19.8 22.4754 19.7927 22.6439 19.7342C23.0323 19.6026 23.1495 19.281 22.9517 18.9229C22.2557 17.6513 21.5524 16.387 20.8491 15.1228L20.8487 15.1222C20.6802 14.8298 20.4384 14.6836 20.1013 14.6836H4.01785C3.6808 14.6836 3.43899 14.8298 3.27779 15.1222L3.27778 15.1222C2.57436 16.3866 1.87094 17.6511 1.17485 18.9229C0.977012 19.281 1.10158 19.6026 1.48992 19.7342C1.65113 19.7927 1.84164 19.8 2.02482 19.8ZM12.5176 18.3398C12.3637 18.339 12.2098 18.3382 12.0559 18.3382C11.9023 18.3382 11.7487 18.339 11.5949 18.3398C11.2863 18.3414 10.9766 18.343 10.6637 18.3382C10.1948 18.3308 9.87239 18.0385 9.86506 17.6219C9.85773 17.1906 10.1875 16.8836 10.6784 16.8836C11.6016 16.8763 12.5322 16.8763 13.4555 16.8836C13.9244 16.891 14.2468 17.1833 14.2541 17.5999C14.2615 18.0239 13.9317 18.3308 13.4408 18.3382C13.133 18.343 12.8253 18.3414 12.5176 18.3398Z"/>
</mask>
<path fill-rule="evenodd" clip-rule="evenodd" d="M19.8815 3.71997H12.0779H4.28164C3.49028 3.71997 3.27046 3.93924 3.27046 4.7067V12.966C3.27046 13.7261 3.49761 13.9527 4.245 13.9527H19.8815C20.6289 13.9527 20.856 13.7261 20.856 12.966V4.7067C20.856 3.94655 20.6289 3.71997 19.8815 3.71997ZM2.02482 19.8H12.0266H22.109C22.2849 19.8 22.4754 19.7927 22.6439 19.7342C23.0323 19.6026 23.1495 19.281 22.9517 18.9229C22.2557 17.6513 21.5524 16.387 20.8491 15.1228L20.8487 15.1222C20.6802 14.8298 20.4384 14.6836 20.1013 14.6836H4.01785C3.6808 14.6836 3.43899 14.8298 3.27779 15.1222L3.27778 15.1222C2.57436 16.3866 1.87094 17.6511 1.17485 18.9229C0.977012 19.281 1.10158 19.6026 1.48992 19.7342C1.65113 19.7927 1.84164 19.8 2.02482 19.8ZM12.5176 18.3398C12.3637 18.339 12.2098 18.3382 12.0559 18.3382C11.9023 18.3382 11.7487 18.339 11.5949 18.3398C11.2863 18.3414 10.9766 18.343 10.6637 18.3382C10.1948 18.3308 9.87239 18.0385 9.86506 17.6219C9.85773 17.1906 10.1875 16.8836 10.6784 16.8836C11.6016 16.8763 12.5322 16.8763 13.4555 16.8836C13.9244 16.891 14.2468 17.1833 14.2541 17.5999C14.2615 18.0239 13.9317 18.3308 13.4408 18.3382C13.133 18.343 12.8253 18.3414 12.5176 18.3398Z" fill="#E50914"/>
<path d="M22.6439 19.7342L22.323 18.787L22.3161 18.7894L22.6439 19.7342ZM22.9517 18.9229L22.0745 19.403L22.0763 19.4064L22.9517 18.9229ZM20.8491 15.1228L21.723 14.6367L21.7221 14.6351L20.8491 15.1228ZM20.8487 15.1222L21.7218 14.6345L21.7151 14.6227L20.8487 15.1222ZM3.27779 15.1222L4.15049 15.6104L4.1535 15.605L3.27779 15.1222ZM3.27778 15.1222L2.4051 14.6339L2.4039 14.636L3.27778 15.1222ZM1.17485 18.9229L2.05019 19.4064L2.05205 19.403L1.17485 18.9229ZM1.48992 19.7342L1.83092 18.7941L1.82089 18.7905L1.81079 18.7871L1.48992 19.7342ZM12.5176 18.3398L12.5228 17.3398H12.5228L12.5176 18.3398ZM11.5949 18.3398L11.6001 19.3398H11.6001L11.5949 18.3398ZM10.6637 18.3382L10.6793 17.3383H10.6793L10.6637 18.3382ZM9.86506 17.6219L8.8652 17.6389L8.86521 17.6394L9.86506 17.6219ZM10.6784 16.8836V17.8837L10.6863 17.8836L10.6784 16.8836ZM13.4555 16.8836L13.471 15.8837L13.4634 15.8837L13.4555 16.8836ZM14.2541 17.5999L15.254 17.5827L15.254 17.5824L14.2541 17.5999ZM13.4408 18.3382L13.4259 17.3383L13.425 17.3383L13.4408 18.3382ZM12.0779 4.71997H19.8815V2.71997H12.0779V4.71997ZM4.28164 4.71997H12.0779V2.71997H4.28164V4.71997ZM4.27046 4.7067C4.27046 4.67054 4.27111 4.63857 4.27228 4.61031C4.27344 4.58204 4.27509 4.55834 4.27696 4.53864C4.27884 4.51893 4.28085 4.5042 4.28258 4.49375C4.2843 4.4833 4.28558 4.47812 4.28579 4.47733C4.28627 4.47545 4.28145 4.49523 4.26445 4.52717C4.25585 4.54331 4.24451 4.56187 4.22987 4.58165C4.21516 4.60151 4.1982 4.62116 4.17911 4.63986C4.16003 4.65855 4.14037 4.67479 4.12098 4.68856C4.10169 4.70227 4.08399 4.71261 4.06912 4.72021C4.03986 4.73517 4.0235 4.73855 4.02938 4.7371C4.03209 4.73643 4.03922 4.73481 4.05161 4.73284C4.06401 4.73087 4.08067 4.7287 4.10228 4.72671C4.12388 4.72474 4.14947 4.72303 4.17962 4.72183C4.20974 4.72063 4.2436 4.71997 4.28164 4.71997V2.71997C3.87062 2.71997 3.24287 2.75723 2.77947 3.21122C2.30906 3.67208 2.27046 4.3024 2.27046 4.7067H4.27046ZM4.27046 12.966V4.7067H2.27046V12.966H4.27046ZM4.245 12.9527C4.1758 12.9527 4.12435 12.95 4.08686 12.9463C4.06848 12.9445 4.05486 12.9426 4.04533 12.941C4.0358 12.9393 4.03126 12.9382 4.03089 12.9381C4.02992 12.9378 4.04915 12.9427 4.07985 12.9591C4.09534 12.9674 4.1131 12.9783 4.13203 12.9923C4.15103 13.0063 4.1699 13.0225 4.18796 13.0407C4.20602 13.0589 4.22186 13.0778 4.23546 13.0966C4.24899 13.1153 4.2594 13.1326 4.26721 13.1475C4.28266 13.177 4.28684 13.1946 4.28608 13.1916C4.28575 13.1903 4.28441 13.1848 4.28265 13.1743C4.2809 13.1638 4.27888 13.1492 4.277 13.1299C4.27317 13.0905 4.27046 13.0371 4.27046 12.966H2.27046C2.27046 13.3771 2.31488 13.9916 2.76696 14.4481C3.22221 14.9077 3.83768 14.9527 4.245 14.9527V12.9527ZM19.8815 12.9527H4.245V14.9527H19.8815V12.9527ZM19.856 12.966C19.856 13.0371 19.8533 13.0905 19.8495 13.1299C19.8476 13.1492 19.8456 13.1638 19.8439 13.1743C19.8421 13.1848 19.8408 13.1903 19.8404 13.1916C19.8397 13.1946 19.8438 13.177 19.8593 13.1475C19.8671 13.1326 19.8775 13.1153 19.8911 13.0966C19.9046 13.0778 19.9205 13.0589 19.9385 13.0407C19.9566 13.0225 19.9755 13.0063 19.9945 12.9923C20.0134 12.9783 20.0312 12.9674 20.0467 12.9591C20.0774 12.9427 20.0966 12.9378 20.0956 12.9381C20.0953 12.9382 20.0907 12.9393 20.0812 12.941C20.0717 12.9426 20.058 12.9445 20.0397 12.9463C20.0022 12.95 19.9507 12.9527 19.8815 12.9527V14.9527C20.2888 14.9527 20.9043 14.9077 21.3596 14.4481C21.8116 13.9916 21.856 13.3771 21.856 12.966H19.856ZM19.856 4.7067V12.966H21.856V4.7067H19.856ZM19.8815 4.71997C19.9507 4.71997 20.0022 4.72264 20.0397 4.72635C20.058 4.72816 20.0717 4.73009 20.0812 4.73171C20.0907 4.73334 20.0953 4.7345 20.0956 4.73459C20.0966 4.73485 20.0774 4.72996 20.0467 4.71354C20.0312 4.70525 20.0134 4.69438 19.9945 4.68041C19.9755 4.66638 19.9566 4.65021 19.9385 4.63197C19.9205 4.61374 19.9046 4.59487 19.8911 4.57609C19.8775 4.55739 19.8671 4.54004 19.8593 4.52515C19.8438 4.49571 19.8397 4.47812 19.8404 4.48104C19.8408 4.48235 19.8421 4.48785 19.8439 4.49834C19.8456 4.50884 19.8476 4.52343 19.8495 4.54277C19.8533 4.58217 19.856 4.63557 19.856 4.7067H21.856C21.856 4.29555 21.8116 3.68103 21.3596 3.22459C20.9043 2.76493 20.2888 2.71997 19.8815 2.71997V4.71997ZM12.0266 18.8H2.02482V20.8H12.0266V18.8ZM22.109 18.8H12.0266V20.8H22.109V18.8ZM22.3161 18.7894C22.3274 18.7855 22.3192 18.79 22.279 18.794C22.2384 18.7981 22.1863 18.8 22.109 18.8V20.8C22.2887 20.8 22.6296 20.7976 22.9717 20.6789L22.3161 18.7894ZM22.0763 19.4064C22.0758 19.4054 22.0581 19.3733 22.05 19.3115C22.0416 19.2465 22.0454 19.158 22.0813 19.0623C22.1602 18.852 22.3137 18.7902 22.3231 18.7871L22.9648 20.6813C23.3625 20.5466 23.7688 20.2582 23.9539 19.7647C24.1372 19.2762 24.0246 18.7971 23.827 18.4394L22.0763 19.4064ZM19.9752 15.6089C20.6788 16.8737 21.3804 18.1349 22.0745 19.403L23.8289 18.4428C23.131 17.1677 22.426 15.9004 21.723 14.6367L19.9752 15.6089ZM19.9757 15.6098L19.976 15.6104L21.7221 14.6351L21.7218 14.6345L19.9757 15.6098ZM20.1013 15.6836C20.1132 15.6836 20.1088 15.6849 20.0929 15.6809C20.0759 15.6766 20.0533 15.6682 20.0294 15.6541C20.0056 15.6401 19.9893 15.6254 19.9803 15.6159C19.9721 15.6072 19.9738 15.6067 19.9824 15.6216L21.7151 14.6227C21.5624 14.3578 21.3467 14.1095 21.0471 13.9324C20.7456 13.7542 20.4192 13.6836 20.1013 13.6836V15.6836ZM4.01785 15.6836H20.1013V13.6836H4.01785V15.6836ZM4.1535 15.605C4.15982 15.5935 4.15943 15.5971 4.14882 15.6086C4.13753 15.6208 4.11905 15.6372 4.09355 15.6524C4.06798 15.6677 4.04417 15.6764 4.02681 15.6808C4.01041 15.6849 4.00587 15.6836 4.01785 15.6836V13.6836C3.70076 13.6836 3.37274 13.7539 3.07021 13.9341C2.76835 14.1138 2.55222 14.367 2.40209 14.6393L4.1535 15.605ZM4.15046 15.6105L4.15048 15.6104L2.40511 14.6339L2.4051 14.6339L4.15046 15.6105ZM2.05205 19.403C2.74622 18.1347 3.44797 16.8733 4.15166 15.6083L2.4039 14.636C1.70076 15.9 0.995665 17.1675 0.29765 18.4428L2.05205 19.403ZM1.81079 18.7871C1.81697 18.7892 1.96547 18.8472 2.04483 19.0517C2.12425 19.2564 2.05379 19.3999 2.05018 19.4064L0.29952 18.4394C0.0980675 18.804 -0.00902701 19.2874 0.180303 19.7753C0.369579 20.263 0.774534 20.5477 1.16906 20.6813L1.81079 18.7871ZM2.02482 18.8C1.9427 18.8 1.88926 18.7981 1.84938 18.794C1.80934 18.79 1.80881 18.7861 1.83092 18.7941L1.14893 20.6743C1.49341 20.7992 1.8457 20.8 2.02482 20.8V18.8ZM12.0559 19.3382C12.2067 19.3382 12.358 19.3389 12.5123 19.3398L12.5228 17.3398C12.3694 17.339 12.2129 17.3382 12.0559 17.3382V19.3382ZM11.6001 19.3398C11.7544 19.3389 11.9054 19.3382 12.0559 19.3382V17.3382C11.8993 17.3382 11.743 17.339 11.5896 17.3398L11.6001 19.3398ZM10.6482 19.338C10.9732 19.3431 11.2932 19.3414 11.6001 19.3398L11.5896 17.3398C11.2794 17.3414 10.9801 17.343 10.6793 17.3383L10.6482 19.338ZM8.86521 17.6394C8.87359 18.1154 9.06897 18.5589 9.42244 18.8769C9.76872 19.1884 10.2103 19.3312 10.6482 19.338L10.6793 17.3383C10.6482 17.3378 10.6941 17.3307 10.7601 17.3901C10.7921 17.4189 10.8202 17.4564 10.8396 17.4996C10.8589 17.5427 10.8645 17.5802 10.8649 17.6043L8.86521 17.6394ZM10.6784 15.8836C10.2255 15.8836 9.7663 16.0273 9.41007 16.353C9.04605 16.6859 8.8569 17.1499 8.8652 17.6389L10.8649 17.6049C10.8653 17.6279 10.8611 17.6663 10.842 17.7118C10.8228 17.7575 10.7937 17.798 10.7597 17.829C10.6892 17.8935 10.6404 17.8836 10.6784 17.8836V15.8836ZM13.4634 15.8837C12.5348 15.8763 11.599 15.8763 10.6705 15.8837L10.6863 17.8836C11.6043 17.8763 12.5296 17.8763 13.4475 17.8836L13.4634 15.8837ZM15.254 17.5824C15.2456 17.1064 15.0502 16.6629 14.6967 16.3449C14.3505 16.0333 13.9089 15.8906 13.471 15.8838L13.4399 17.8835C13.471 17.884 13.4251 17.8911 13.3591 17.8317C13.3271 17.8029 13.299 17.7654 13.2796 17.7222C13.2603 17.6791 13.2547 17.6416 13.2543 17.6175L15.254 17.5824ZM13.4557 19.338C13.9045 19.3314 14.3574 19.1849 14.7091 18.8633C15.0691 18.5341 15.2625 18.0738 15.254 17.5827L13.2543 17.6172C13.2538 17.5899 13.2589 17.5489 13.2786 17.5025C13.2983 17.4561 13.3274 17.4167 13.3595 17.3873C13.4254 17.327 13.468 17.3376 13.4259 17.3383L13.4557 19.338ZM12.5123 19.3398C12.8183 19.3414 13.1366 19.3431 13.4566 19.338L13.425 17.3383C13.1295 17.343 12.8323 17.3414 12.5228 17.3398L12.5123 19.3398Z" fill="#E50914" mask="url(#path-1-inside-1_1296_2657)"/>
</g>
</g>
<defs>
<filter id="filter0_b_1296_2657" x="-10.918" y="-8.28003" width="45.9648" height="40.0801" filterUnits="userSpaceOnUse" color-interpolation-filters="sRGB">
<feFlood flood-opacity="0" result="BackgroundImageFix"/>
<feGaussianBlur in="BackgroundImageFix" stdDeviation="6"/>
<feComposite in2="SourceAlpha" operator="in" result="effect1_backgroundBlur_1296_2657"/>
<feBlend mode="normal" in="SourceGraphic" in2="effect1_backgroundBlur_1296_2657" result="shape"/>
</filter>
<clipPath id="clip0_1296_2657">
<rect width="21.96" height="16.08" fill="white" transform="translate(1.08008 3.71997)"/>
</clipPath>
</defs>
</svg>
