<svg width="24" height="24" viewBox="0 0 24 24" fill="none" xmlns="http://www.w3.org/2000/svg">
<g clip-path="url(#clip0_1296_2630)">
<g filter="url(#filter0_b_1296_2630)">
<path d="M6.23933 11.76C6.23933 8.97398 6.23258 6.18122 6.23933 3.39521C6.23933 2.24843 6.81946 1.41195 7.83808 1.08141C8.08093 1.00046 8.34401 0.966729 8.60035 0.966729C10.9546 0.959983 13.3089 0.959983 15.6564 0.966729C17.0258 0.973475 18.0242 1.96511 18.0242 3.32775C18.031 8.95374 18.031 14.573 18.0242 20.199C18.0242 21.5616 17.0258 22.56 15.6632 22.56C13.3359 22.5667 11.0086 22.5667 8.6813 22.56C7.22421 22.56 6.25282 21.6021 6.24607 20.1315C6.23258 17.3387 6.23933 14.5527 6.23933 11.76ZM12.1351 2.92301C11.6764 2.92301 11.2177 2.92301 10.7523 2.92301C10.388 2.92975 10.1856 3.0984 10.1789 3.39521C10.1721 3.69877 10.361 3.90789 10.7118 3.90789C11.6562 3.92138 12.5939 3.92138 13.5383 3.90789C13.8756 3.90115 14.1049 3.67179 14.0914 3.39521C14.0779 3.11189 13.8553 2.92301 13.5113 2.92301C13.0526 2.92301 12.5939 2.92301 12.1351 2.92301ZM12.1351 18.6474C11.582 18.6474 11.1435 19.0859 11.1503 19.6256C11.157 20.1652 11.609 20.6037 12.1486 20.597C12.6748 20.5902 13.0998 20.1585 13.0998 19.6256C13.1065 19.0657 12.6883 18.6474 12.1351 18.6474Z" fill="#E50914"/>
<path d="M10.7523 2.42292V2.42301H10.755H10.7577H10.7604H10.7632H10.7659H10.7686H10.7713H10.7741H10.7768H10.7795H10.7822H10.785H10.7877H10.7904H10.7931H10.7959H10.7986H10.8013H10.804H10.8068H10.8095H10.8122H10.8149H10.8177H10.8204H10.8231H10.8258H10.8286H10.8313H10.834H10.8367H10.8395H10.8422H10.8449H10.8476H10.8503H10.8531H10.8558H10.8585H10.8612H10.8639H10.8667H10.8694H10.8721H10.8748H10.8776H10.8803H10.883H10.8857H10.8884H10.8912H10.8939H10.8966H10.8993H10.902H10.9048H10.9075H10.9102H10.9129H10.9156H10.9183H10.9211H10.9238H10.9265H10.9292H10.9319H10.9347H10.9374H10.9401H10.9428H10.9455H10.9482H10.951H10.9537H10.9564H10.9591H10.9618H10.9645H10.9673H10.97H10.9727H10.9754H10.9781H10.9808H10.9835H10.9863H10.989H10.9917H10.9944H10.9971H10.9998H11.0026H11.0053H11.008H11.0107H11.0134H11.0161H11.0188H11.0216H11.0243H11.027H11.0297H11.0324H11.0351H11.0378H11.0405H11.0433H11.046H11.0487H11.0514H11.0541H11.0568H11.0595H11.0622H11.065H11.0677H11.0704H11.0731H11.0758H11.0785H11.0812H11.0839H11.0866H11.0894H11.0921H11.0948H11.0975H11.1002H11.1029H11.1056H11.1083H11.111H11.1137H11.1164H11.1192H11.1219H11.1246H11.1273H11.13H11.1327H11.1354H11.1381H11.1408H11.1435H11.1462H11.149H11.1517H11.1544H11.1571H11.1598H11.1625H11.1652H11.1679H11.1706H11.1733H11.176H11.1787H11.1814H11.1841H11.1869H11.1896H11.1923H11.195H11.1977H11.2004H11.2031H11.2058H11.2085H11.2112H11.2139H11.2166H11.2193H11.222H11.2247H11.2274H11.2301H11.2328H11.2356H11.2383H11.241H11.2437H11.2464H11.2491H11.2518H11.2545H11.2572H11.2599H11.2626H11.2653H11.268H11.2707H11.2734H11.2761H11.2788H11.2815H11.2842H11.2869H11.2896H11.2923H11.295H11.2977H11.3004H11.3031H11.3058H11.3085H11.3112H11.3139H11.3166H11.3193H11.3221H11.3248H11.3275H11.3302H11.3329H11.3356H11.3383H11.341H11.3437H11.3464H11.3491H11.3518H11.3545H11.3572H11.3599H11.3626H11.3653H11.368H11.3707H11.3734H11.3761H11.3788H11.3815H11.3842H11.3869H11.3896H11.3923H11.395H11.3977H11.4004H11.4031H11.4058H11.4085H11.4112H11.4139H11.4165H11.4192H11.4219H11.4246H11.4273H11.43H11.4327H11.4354H11.4381H11.4408H11.4435H11.4462H11.4489H11.4516H11.4543H11.457H11.4597H11.4624H11.4651H11.4678H11.4705H11.4732H11.4759H11.4786H11.4813H11.484H11.4867H11.4894H11.4921H11.4948H11.4975H11.5002H11.5029H11.5056H11.5083H11.511H11.5136H11.5163H11.519H11.5217H11.5244H11.5271H11.5298H11.5325H11.5352H11.5379H11.5406H11.5433H11.546H11.5487H11.5514H11.5541H11.5568H11.5595H11.5622H11.5649H11.5675H11.5702H11.5729H11.5756H11.5783H11.581H11.5837H11.5864H11.5891H11.5918H11.5945H11.5972H11.5999H11.6026H11.6053H11.608H11.6107H11.6133H11.616H11.6187H11.6214H11.6241H11.6268H11.6295H11.6322H11.6349H11.6376H11.6403H11.643H11.6457H11.6484H11.651H11.6537H11.6564H11.6591H11.6618H11.6645H11.6672H11.6699H11.6726H11.6753H11.678H11.6807H11.6834H11.686H11.6887H11.6914H11.6941H11.6968H11.6995H11.7022H11.7049H11.7076H11.7103H11.713H11.7157H11.7183H11.721H11.7237H11.7264H11.7291H11.7318H11.7345H11.7372H11.7399H11.7426H11.7453H11.748H11.7506H11.7533H11.756H11.7587H11.7614H11.7641H11.7668H11.7695H11.7722H11.7749H11.7775H11.7802H11.7829H11.7856H11.7883H11.791H11.7937H11.7964H11.7991H11.8018H11.8045H11.8071H11.8098H11.8125H11.8152H11.8179H11.8206H11.8233H11.826H11.8287H11.8314H11.834H11.8367H11.8394H11.8421H11.8448H11.8475H11.8502H11.8529H11.8556H11.8582H11.8609H11.8636H11.8663H11.869H11.8717H11.8744H11.8771H11.8798H11.8824H11.8851H11.8878H11.8905H11.8932H11.8959H11.8986H11.9013H11.904H11.9067H11.9093H11.912H11.9147H11.9174H11.9201H11.9228H11.9255H11.9282H11.9308H11.9335H11.9362H11.9389H11.9416H11.9443H11.947H11.9497H11.9524H11.955H11.9577H11.9604H11.9631H11.9658H11.9685H11.9712H11.9739H11.9766H11.9792H11.9819H11.9846H11.9873H11.99H11.9927H11.9954H11.9981H12.0007H12.0034H12.0061H12.0088H12.0115H12.0142H12.0169H12.0196H12.0223H12.0249H12.0276H12.0303H12.033H12.0357H12.0384H12.0411H12.0438H12.0464H12.0491H12.0518H12.0545H12.0572H12.0599H12.0626H12.0653H12.0679H12.0706H12.0733H12.076H12.0787H12.0814H12.0841H12.0868H12.0894H12.0921H12.0948H12.0975H12.1002H12.1029H12.1056H12.1083H12.111H12.1136H12.1163H12.119H12.1217H12.1244H12.1271H12.1298H12.1325H12.1351H12.1378H12.1405H12.1432H12.1459H12.1486H12.1513H12.154H12.1566H12.1593H12.162H12.1647H12.1674H12.1701H12.1728H12.1755H12.1781H12.1808H12.1835H12.1862H12.1889H12.1916H12.1943H12.197H12.1996H12.2023H12.205H12.2077H12.2104H12.2131H12.2158H12.2185H12.2212H12.2238H12.2265H12.2292H12.2319H12.2346H12.2373H12.24H12.2427H12.2453H12.248H12.2507H12.2534H12.2561H12.2588H12.2615H12.2642H12.2668H12.2695H12.2722H12.2749H12.2776H12.2803H12.283H12.2857H12.2883H12.291H12.2937H12.2964H12.2991H12.3018H12.3045H12.3072H12.3098H12.3125H12.3152H12.3179H12.3206H12.3233H12.326H12.3287H12.3313H12.334H12.3367H12.3394H12.3421H12.3448H12.3475H12.3502H12.3529H12.3555H12.3582H12.3609H12.3636H12.3663H12.369H12.3717H12.3744H12.377H12.3797H12.3824H12.3851H12.3878H12.3905H12.3932H12.3959H12.3985H12.4012H12.4039H12.4066H12.4093H12.412H12.4147H12.4174H12.42H12.4227H12.4254H12.4281H12.4308H12.4335H12.4362H12.4389H12.4415H12.4442H12.4469H12.4496H12.4523H12.455H12.4577H12.4604H12.4631H12.4657H12.4684H12.4711H12.4738H12.4765H12.4792H12.4819H12.4846H12.4872H12.4899H12.4926H12.4953H12.498H12.5007H12.5034H12.5061H12.5087H12.5114H12.5141H12.5168H12.5195H12.5222H12.5249H12.5276H12.5302H12.5329H12.5356H12.5383H12.541H12.5437H12.5464H12.5491H12.5517H12.5544H12.5571H12.5598H12.5625H12.5652H12.5679H12.5706H12.5732H12.5759H12.5786H12.5813H12.584H12.5867H12.5894H12.5921H12.5948H12.5974H12.6001H12.6028H12.6055H12.6082H12.6109H12.6136H12.6163H12.6189H12.6216H12.6243H12.627H12.6297H12.6324H12.6351H12.6378H12.6404H12.6431H12.6458H12.6485H12.6512H12.6539H12.6566H12.6593H12.6619H12.6646H12.6673H12.67H12.6727H12.6754H12.6781H12.6808H12.6834H12.6861H12.6888H12.6915H12.6942H12.6969H12.6996H12.7023H12.7049H12.7076H12.7103H12.713H12.7157H12.7184H12.7211H12.7238H12.7265H12.7291H12.7318H12.7345H12.7372H12.7399H12.7426H12.7453H12.748H12.7506H12.7533H12.756H12.7587H12.7614H12.7641H12.7668H12.7695H12.7721H12.7748H12.7775H12.7802H12.7829H12.7856H12.7883H12.791H12.7936H12.7963H12.799H12.8017H12.8044H12.8071H12.8098H12.8125H12.8151H12.8178H12.8205H12.8232H12.8259H12.8286H12.8313H12.834H12.8367H12.8393H12.842H12.8447H12.8474H12.8501H12.8528H12.8555H12.8582H12.8608H12.8635H12.8662H12.8689H12.8716H12.8743H12.877H12.8797H12.8823H12.885H12.8877H12.8904H12.8931H12.8958H12.8985H12.9012H12.9038H12.9065H12.9092H12.9119H12.9146H12.9173H12.92H12.9227H12.9253H12.928H12.9307H12.9334H12.9361H12.9388H12.9415H12.9442H12.9468H12.9495H12.9522H12.9549H12.9576H12.9603H12.963H12.9657H12.9684H12.971H12.9737H12.9764H12.9791H12.9818H12.9845H12.9872H12.9899H12.9925H12.9952H12.9979H13.0006H13.0033H13.006H13.0087H13.0114H13.014H13.0167H13.0194H13.0221H13.0248H13.0275H13.0302H13.0329H13.0355H13.0382H13.0409H13.0436H13.0463H13.049H13.0517H13.0544H13.057H13.0597H13.0624H13.0651H13.0678H13.0705H13.0732H13.0759H13.0786H13.0812H13.0839H13.0866H13.0893H13.092H13.0947H13.0974H13.1001H13.1027H13.1054H13.1081H13.1108H13.1135H13.1162H13.1189H13.1216H13.1242H13.1269H13.1296H13.1323H13.135H13.1377H13.1404H13.1431H13.1457H13.1484H13.1511H13.1538H13.1565H13.1592H13.1619H13.1646H13.1672H13.1699H13.1726H13.1753H13.178H13.1807H13.1834H13.1861H13.1887H13.1914H13.1941H13.1968H13.1995H13.2022H13.2049H13.2076H13.2103H13.2129H13.2156H13.2183H13.221H13.2237H13.2264H13.2291H13.2318H13.2344H13.2371H13.2398H13.2425H13.2452H13.2479H13.2506H13.2533H13.2559H13.2586H13.2613H13.264H13.2667H13.2694H13.2721H13.2748H13.2774H13.2801H13.2828H13.2855H13.2882H13.2909H13.2936H13.2963H13.2989H13.3016H13.3043H13.307H13.3097H13.3124H13.3151H13.3178H13.3205H13.3231H13.3258H13.3285H13.3312H13.3339H13.3366H13.3393H13.342H13.3446H13.3473H13.35H13.3527H13.3554H13.3581H13.3608H13.3635H13.3661H13.3688H13.3715H13.3742H13.3769H13.3796H13.3823H13.385H13.3876H13.3903H13.393H13.3957H13.3984H13.4011H13.4038H13.4065H13.4091H13.4118H13.4145H13.4172H13.4199H13.4226H13.4253H13.428H13.4306H13.4333H13.436H13.4387H13.4414H13.4441H13.4468H13.4495H13.4522H13.4548H13.4575H13.4602H13.4629H13.4656H13.4683H13.471H13.4737H13.4763H13.479H13.4817H13.4844H13.4871H13.4898H13.4925H13.4952H13.4978H13.5005H13.5032H13.5059H13.5086H13.5113C13.7725 2.42301 14.0346 2.49516 14.2432 2.6669C14.4578 2.84365 14.5776 3.09577 14.5908 3.37085C14.5908 3.37104 14.5908 3.37124 14.5909 3.37143L14.0914 3.39521C14.1049 3.67179 13.8756 3.90115 13.5383 3.90789L10.7523 2.42292ZM10.7523 2.42292L10.743 2.42309C10.493 2.42772 10.2266 2.48845 10.013 2.66485C9.78593 2.85247 9.68509 3.11574 9.67899 3.38385L9.67899 3.3841C9.67323 3.64302 9.75206 3.9133 9.9577 4.11894C10.1619 4.3231 10.4344 4.40708 10.7078 4.40789L10.7523 2.42292ZM6.73933 3.39642V3.39521C6.73933 2.44551 7.19795 1.8148 7.99241 1.55699L7.99241 1.55701L7.99619 1.55575C8.17766 1.49526 8.38557 1.46673 8.60035 1.46673L8.60178 1.46673C10.9549 1.45998 13.3081 1.45998 15.6545 1.46673C16.7526 1.47236 17.5242 2.24464 17.5242 3.32775V3.32835C17.531 8.95394 17.531 14.5728 17.5242 20.1984V20.199C17.5242 21.2855 16.7497 22.06 15.6632 22.06L15.6617 22.06C13.3354 22.0667 11.0091 22.0667 8.68275 22.06H8.6813C8.06454 22.06 7.59097 21.8594 7.27231 21.5426C6.9538 21.226 6.74893 20.7525 6.74607 20.1292L6.74607 20.1291C6.73596 18.0362 6.73722 15.9476 6.73848 13.8555C6.7389 13.1575 6.73933 12.4591 6.73933 11.76C6.73933 10.8307 6.73858 9.90109 6.73783 8.97147C6.73633 7.11238 6.73483 5.25324 6.73933 3.39642ZM12.1549 21.0969L12.155 21.0969C12.9569 21.0866 13.5982 20.4307 13.5998 19.6286C13.6083 18.7906 12.9647 18.1474 12.1351 18.1474C11.3116 18.1474 10.64 18.8054 10.6503 19.6318C10.6605 20.4492 11.3407 21.1071 12.1549 21.0969Z" stroke="#E50914"/>
</g>
</g>
<defs>
<filter id="filter0_b_1296_2630" x="-5.76367" y="-11.0383" width="35.793" height="45.6034" filterUnits="userSpaceOnUse" color-interpolation-filters="sRGB">
<feFlood flood-opacity="0" result="BackgroundImageFix"/>
<feGaussianBlur in="BackgroundImageFix" stdDeviation="6"/>
<feComposite in2="SourceAlpha" operator="in" result="effect1_backgroundBlur_1296_2630"/>
<feBlend mode="normal" in="SourceGraphic" in2="effect1_backgroundBlur_1296_2630" result="shape"/>
</filter>
<clipPath id="clip0_1296_2630">
<rect width="11.7849" height="21.6" fill="white" transform="translate(6.24023 0.959961)"/>
</clipPath>
</defs>
</svg>
