<svg width="24" height="24" viewBox="0 0 24 24" fill="none" xmlns="http://www.w3.org/2000/svg">
<g clip-path="url(#clip0_1296_2646)">
<g filter="url(#filter0_b_1296_2646)">
<mask id="path-1-inside-1_1296_2646" fill="white">
<path fill-rule="evenodd" clip-rule="evenodd" d="M1.68063 14.0075V14.2955C8.62518 14.2955 15.5229 14.2955 22.4473 14.2888V14.0008V4.99109C22.4473 4.36142 22.1661 4.08008 21.5232 4.08008H2.60478C1.95519 4.08008 1.68063 4.36142 1.68063 4.99779V14.0075ZM11.4349 10.9785C11.1549 11.1404 10.873 11.3035 10.5873 11.4687V7.52988C11.3121 7.95208 12.026 8.36341 12.7481 8.77944C13.1602 9.0169 13.575 9.25588 13.996 9.49929C13.1281 9.99896 12.2907 10.4834 11.4349 10.9785ZM19.2068 17.8914C19.1406 17.729 19.0728 17.5628 19.0051 17.3903H19.0055C19.9094 17.3903 20.7598 17.3903 21.5967 17.3836C22.0521 17.3769 22.4003 17.1223 22.4204 16.7137C22.4436 16.3248 22.4379 15.9327 22.4322 15.5374C22.4297 15.3607 22.4271 15.1835 22.4271 15.0056H1.67383V16.4257C1.67383 17.1022 1.95509 17.3836 2.62477 17.3836H5.10927C4.90167 17.9061 4.70747 18.3884 4.51326 18.8707C4.4329 19.085 4.39941 19.2994 4.66729 19.3999C4.92846 19.5004 5.0557 19.3262 5.14276 19.1118C5.2016 18.9666 5.2616 18.822 5.32157 18.6775C5.46633 18.3285 5.61092 17.98 5.73877 17.6247C5.81243 17.4305 5.91289 17.3836 6.10709 17.3836C10.0783 17.3903 14.0495 17.3903 18.0207 17.3836C18.2283 17.3836 18.3153 17.4506 18.3823 17.6381C18.5342 18.0415 18.6963 18.4346 18.8598 18.8308C18.8836 18.8887 18.9075 18.9466 18.9314 19.0047C18.9482 19.0415 18.9632 19.0767 18.9783 19.1118C18.9934 19.147 19.0084 19.1822 19.0252 19.219C19.1122 19.4133 19.293 19.5071 19.4538 19.3932C19.5609 19.3195 19.6547 19.085 19.6145 18.9645C19.4984 18.6068 19.3565 18.2588 19.2068 17.8914ZM14.5919 16.3252H12.0471C11.7661 16.3252 11.4844 16.3245 11.2023 16.3237C10.6376 16.3222 10.0718 16.3207 9.50905 16.3252C9.28136 16.3252 9.06037 16.2984 9.05367 16.0104C9.04698 15.7156 9.26797 15.6553 9.51575 15.6553H14.5986C14.8397 15.6553 15.0674 15.7089 15.0674 16.0037C15.0674 16.3118 14.8263 16.3252 14.5919 16.3252Z"/>
</mask>
<path fill-rule="evenodd" clip-rule="evenodd" d="M1.68063 14.0075V14.2955C8.62518 14.2955 15.5229 14.2955 22.4473 14.2888V14.0008V4.99109C22.4473 4.36142 22.1661 4.08008 21.5232 4.08008H2.60478C1.95519 4.08008 1.68063 4.36142 1.68063 4.99779V14.0075ZM11.4349 10.9785C11.1549 11.1404 10.873 11.3035 10.5873 11.4687V7.52988C11.3121 7.95208 12.026 8.36341 12.7481 8.77944C13.1602 9.0169 13.575 9.25588 13.996 9.49929C13.1281 9.99896 12.2907 10.4834 11.4349 10.9785ZM19.2068 17.8914C19.1406 17.729 19.0728 17.5628 19.0051 17.3903H19.0055C19.9094 17.3903 20.7598 17.3903 21.5967 17.3836C22.0521 17.3769 22.4003 17.1223 22.4204 16.7137C22.4436 16.3248 22.4379 15.9327 22.4322 15.5374C22.4297 15.3607 22.4271 15.1835 22.4271 15.0056H1.67383V16.4257C1.67383 17.1022 1.95509 17.3836 2.62477 17.3836H5.10927C4.90167 17.9061 4.70747 18.3884 4.51326 18.8707C4.4329 19.085 4.39941 19.2994 4.66729 19.3999C4.92846 19.5004 5.0557 19.3262 5.14276 19.1118C5.2016 18.9666 5.2616 18.822 5.32157 18.6775C5.46633 18.3285 5.61092 17.98 5.73877 17.6247C5.81243 17.4305 5.91289 17.3836 6.10709 17.3836C10.0783 17.3903 14.0495 17.3903 18.0207 17.3836C18.2283 17.3836 18.3153 17.4506 18.3823 17.6381C18.5342 18.0415 18.6963 18.4346 18.8598 18.8308C18.8836 18.8887 18.9075 18.9466 18.9314 19.0047C18.9482 19.0415 18.9632 19.0767 18.9783 19.1118C18.9934 19.147 19.0084 19.1822 19.0252 19.219C19.1122 19.4133 19.293 19.5071 19.4538 19.3932C19.5609 19.3195 19.6547 19.085 19.6145 18.9645C19.4984 18.6068 19.3565 18.2588 19.2068 17.8914ZM14.5919 16.3252H12.0471C11.7661 16.3252 11.4844 16.3245 11.2023 16.3237C10.6376 16.3222 10.0718 16.3207 9.50905 16.3252C9.28136 16.3252 9.06037 16.2984 9.05367 16.0104C9.04698 15.7156 9.26797 15.6553 9.51575 15.6553H14.5986C14.8397 15.6553 15.0674 15.7089 15.0674 16.0037C15.0674 16.3118 14.8263 16.3252 14.5919 16.3252Z" fill="#E50914"/>
<path d="M1.68063 14.2955H0.680627V15.2955H1.68063V14.2955ZM22.4473 14.2888L22.4483 15.2888L23.4473 15.2879V14.2888H22.4473ZM10.5873 11.4687H9.58734V13.202L11.0879 12.3344L10.5873 11.4687ZM11.4349 10.9785L10.9342 10.1129L11.4349 10.9785ZM10.5873 7.52988L11.0907 6.6658L9.58734 5.79007V7.52988H10.5873ZM12.7481 8.77944L13.2473 7.91297L13.2473 7.91297L12.7481 8.77944ZM13.996 9.49929L14.4949 10.3659L15.997 9.50113L14.4965 8.63358L13.996 9.49929ZM19.0051 17.3903V16.3903H17.538L18.0743 17.7559L19.0051 17.3903ZM19.2068 17.8914L20.1328 17.5139V17.5139L19.2068 17.8914ZM21.5967 17.3836L21.6047 18.3836L21.6114 18.3835L21.5967 17.3836ZM22.4204 16.7137L21.4221 16.6543L21.4216 16.6646L22.4204 16.7137ZM22.4322 15.5374L23.4321 15.5229V15.5229L22.4322 15.5374ZM22.4271 15.0056H23.4271V14.0056H22.4271V15.0056ZM1.67383 15.0056V14.0056H0.673828V15.0056H1.67383ZM5.10927 17.3836L6.0386 17.7528L6.58264 16.3836H5.10927V17.3836ZM4.51326 18.8707L3.58564 18.4972L3.58113 18.5084L3.5769 18.5197L4.51326 18.8707ZM4.66729 19.3999L5.02636 18.4665L5.0185 18.4636L4.66729 19.3999ZM5.14276 19.1118L6.06926 19.4881L6.06953 19.4875L5.14276 19.1118ZM5.32157 18.6775L6.24524 19.0607V19.0607L5.32157 18.6775ZM5.73877 17.6247L4.80374 17.2702L4.80073 17.2781L4.79785 17.2861L5.73877 17.6247ZM6.10709 17.3836L6.10878 16.3836H6.10709V17.3836ZM18.0207 17.3836V16.3836L18.019 16.3836L18.0207 17.3836ZM18.3823 17.6381L17.4405 17.9744L17.4434 17.9826L17.4465 17.9907L18.3823 17.6381ZM18.8598 18.8308L17.9353 19.2121L17.9353 19.2121L18.8598 18.8308ZM18.9314 19.0047L18.0067 19.3853L18.0136 19.402L18.021 19.4184L18.9314 19.0047ZM18.9783 19.1118L19.8975 18.718L19.8975 18.718L18.9783 19.1118ZM19.0252 19.219L19.9377 18.8101L19.9356 18.8053L19.0252 19.219ZM19.4538 19.3932L18.8871 18.5691L18.8756 18.5772L19.4538 19.3932ZM19.6145 18.9645L18.6633 19.2732L18.6658 19.2806L19.6145 18.9645ZM11.2023 16.3237L11.205 15.3237H11.205L11.2023 16.3237ZM9.50905 16.3252V17.3252L9.51699 17.3252L9.50905 16.3252ZM9.05367 16.0104L8.05393 16.0331L8.05394 16.0336L9.05367 16.0104ZM2.68063 14.2955V14.0075H0.680627V14.2955H2.68063ZM22.4464 13.2888C15.5225 13.2955 8.62526 13.2955 1.68063 13.2955V15.2955C8.6251 15.2955 15.5233 15.2955 22.4483 15.2888L22.4464 13.2888ZM21.4473 14.0008V14.2888H23.4473V14.0008H21.4473ZM21.4473 4.99109V14.0008H23.4473V4.99109H21.4473ZM21.5232 5.08008C21.6155 5.08008 21.6482 5.09074 21.6426 5.089C21.6381 5.08761 21.6221 5.08215 21.5993 5.06899C21.5758 5.0555 21.5492 5.0362 21.5231 5.01041C21.497 4.98459 21.4769 4.95766 21.4625 4.93313C21.4484 4.90918 21.4421 4.89164 21.44 4.88516C21.437 4.87553 21.4473 4.90356 21.4473 4.99109H23.4473C23.4473 4.55054 23.3514 4.00574 22.9296 3.58851C22.5102 3.17373 21.9655 3.08008 21.5232 3.08008V5.08008ZM2.60478 5.08008H21.5232V3.08008H2.60478V5.08008ZM2.68063 4.99779C2.68063 4.90574 2.69115 4.87455 2.6889 4.88182C2.68721 4.88726 2.68129 4.90441 2.6674 4.92844C2.65314 4.95309 2.63296 4.98065 2.60631 5.0073C2.57967 5.03396 2.55223 5.05403 2.52786 5.06813C2.50413 5.08187 2.48741 5.08759 2.4826 5.08909C2.47656 5.09096 2.50972 5.08008 2.60478 5.08008V3.08008C2.16204 3.08008 1.61261 3.17246 1.1919 3.59329C0.771078 4.01423 0.680627 4.56219 0.680627 4.99779H2.68063ZM2.68063 14.0075V4.99779H0.680627V14.0075H2.68063ZM11.0879 12.3344C11.3736 12.1692 11.6557 12.006 11.9356 11.8441L10.9342 10.1129C10.6542 10.2748 10.3723 10.4379 10.0868 10.603L11.0879 12.3344ZM9.58734 7.52988V11.4687H11.5873V7.52988H9.58734ZM13.2473 7.91297C12.5249 7.49676 11.8131 7.0866 11.0907 6.6658L10.084 8.39397C10.8112 8.81756 11.5271 9.23007 12.2489 9.64591L13.2473 7.91297ZM14.4965 8.63358C14.0748 8.38973 13.6594 8.15037 13.2473 7.91297L12.2489 9.64591C12.6611 9.88343 13.0752 10.122 13.4954 10.365L14.4965 8.63358ZM11.9356 11.8441C12.7915 11.3489 13.6281 10.865 14.4949 10.3659L13.497 8.63266C12.6281 9.13293 11.7898 9.6179 10.9342 10.1129L11.9356 11.8441ZM18.0743 17.7559C18.1447 17.9352 18.2149 18.1073 18.2807 18.2689L20.1328 17.5139C20.0663 17.3507 20.0009 17.1903 19.9359 17.0247L18.0743 17.7559ZM19.0055 16.3903H19.0051V18.3903H19.0055V16.3903ZM21.5887 16.3836C20.7565 16.3903 19.9102 16.3903 19.0055 16.3903V18.3903C19.9086 18.3903 20.763 18.3903 21.6047 18.3836L21.5887 16.3836ZM21.4216 16.6646C21.4235 16.6276 21.4342 16.578 21.4612 16.5264C21.4878 16.4755 21.522 16.4383 21.5525 16.4142C21.6103 16.3686 21.6344 16.3829 21.582 16.3837L21.6114 18.3835C22.4014 18.3719 23.3647 17.8714 23.4192 16.7628L21.4216 16.6646ZM21.4323 15.5518C21.4381 15.9535 21.4428 16.3085 21.4222 16.6543L23.4187 16.7731C23.4444 16.3411 23.4377 15.9118 23.4321 15.5229L21.4323 15.5518ZM21.4271 15.0056C21.4271 15.1919 21.4298 15.3763 21.4323 15.5518L23.4321 15.5229C23.4296 15.3452 23.4271 15.1751 23.4271 15.0056H21.4271ZM1.67383 16.0056H22.4271V14.0056H1.67383V16.0056ZM2.67383 16.4257V15.0056H0.673828V16.4257H2.67383ZM2.62477 16.3836C2.57544 16.3836 2.54005 16.381 2.51624 16.378C2.49246 16.375 2.48387 16.3721 2.48672 16.373C2.49003 16.374 2.50599 16.3792 2.52938 16.3927C2.55348 16.4067 2.5808 16.4266 2.60729 16.4533C2.63376 16.4799 2.65331 16.507 2.66672 16.5306C2.67973 16.5533 2.68456 16.5685 2.68524 16.5707C2.68579 16.5725 2.6827 16.5628 2.67959 16.5378C2.67649 16.5128 2.67383 16.4762 2.67383 16.4257H0.673828C0.673828 16.8721 0.761836 17.4338 1.18905 17.8634C1.61765 18.2945 2.17938 18.3836 2.62477 18.3836V16.3836ZM5.10927 16.3836H2.62477V18.3836H5.10927V16.3836ZM5.44088 19.2442C5.635 18.7621 5.83003 18.2778 6.0386 17.7528L4.17994 17.0143C3.97332 17.5344 3.77994 18.0146 3.58564 18.4972L5.44088 19.2442ZM5.0185 18.4636C5.06617 18.4815 5.16852 18.5301 5.26756 18.642C5.37238 18.7604 5.42724 18.8973 5.4468 19.018C5.46429 19.1259 5.451 19.2022 5.44672 19.2238C5.44219 19.2467 5.43911 19.2498 5.44962 19.2217L3.5769 18.5197C3.53069 18.6429 3.41225 18.9659 3.47257 19.338C3.5072 19.5516 3.59889 19.7744 3.77026 19.9679C3.93585 20.1549 4.13446 20.2681 4.31607 20.3362L5.0185 18.4636ZM4.21625 18.7356C4.20713 18.758 4.2081 18.7511 4.22207 18.7289C4.23551 18.7075 4.27788 18.6447 4.36178 18.5804C4.45444 18.5093 4.58082 18.45 4.72928 18.4335C4.8709 18.4178 4.97627 18.4473 5.02635 18.4666L4.30822 20.3332C4.71521 20.4898 5.18844 20.4669 5.57885 20.1674C5.87733 19.9386 6.01294 19.6268 6.06926 19.4881L4.21625 18.7356ZM4.3979 18.2943C4.33819 18.4382 4.27662 18.5866 4.21598 18.7362L6.06953 19.4875C6.12659 19.3467 6.18501 19.2058 6.24524 19.0607L4.3979 18.2943ZM4.79785 17.2861C4.67944 17.6151 4.54418 17.9417 4.39789 18.2943L6.24524 19.0607C6.38847 18.7154 6.5424 18.3448 6.67969 17.9634L4.79785 17.2861ZM6.10709 16.3836C5.9547 16.3836 5.65275 16.3959 5.3542 16.5793C5.03418 16.7759 4.88189 17.0641 4.80374 17.2702L6.6738 17.9793C6.66931 17.9911 6.60408 18.1587 6.40125 18.2833C6.2199 18.3948 6.06528 18.3836 6.10709 18.3836V16.3836ZM18.019 16.3836C14.0489 16.3903 10.0788 16.3903 6.10878 16.3836L6.10541 18.3836C10.0777 18.3903 14.05 18.3903 18.0223 18.3836L18.019 16.3836ZM19.324 17.3019C19.2635 17.1322 19.136 16.8422 18.8367 16.6277C18.535 16.4115 18.2154 16.3836 18.0207 16.3836V18.3836C18.0202 18.3836 18.0111 18.3836 17.9953 18.382C17.9794 18.3805 17.9541 18.3771 17.9221 18.3694C17.8542 18.3531 17.7637 18.3193 17.6717 18.2534C17.4846 18.1193 17.4341 17.9565 17.4405 17.9744L19.324 17.3019ZM19.7842 18.4496C19.6199 18.051 19.4637 17.6721 19.3181 17.2856L17.4465 17.9907C17.6047 18.4108 17.7728 18.8181 17.9353 19.2121L19.7842 18.4496ZM19.8561 18.624C19.8321 18.5656 19.8081 18.5074 19.7842 18.4496L17.9353 19.2121C17.9592 19.27 17.983 19.3276 18.0067 19.3853L19.8561 18.624ZM19.8975 18.718C19.8829 18.6841 19.8637 18.6392 19.8418 18.591L18.021 19.4184C18.0326 19.4438 18.0435 19.4693 18.0591 19.5057L19.8975 18.718ZM19.9356 18.8053C19.924 18.7799 19.9131 18.7544 19.8975 18.718L18.0591 19.5057C18.0736 19.5396 18.0928 19.5845 18.1148 19.6327L19.9356 18.8053ZM18.8756 18.5772C18.9635 18.515 19.084 18.4614 19.2294 18.4465C19.3741 18.4317 19.5069 18.459 19.6143 18.5062C19.8185 18.596 19.9066 18.7406 19.9377 18.8101L18.1126 19.628C18.2308 19.8917 18.4529 20.1803 18.8093 20.3371C19.2084 20.5125 19.6659 20.4684 20.0319 20.2091L18.8756 18.5772ZM18.6658 19.2806C18.6127 19.1215 18.6232 18.9972 18.6285 18.9528C18.6351 18.8978 18.6473 18.8601 18.6557 18.8382C18.6645 18.8154 18.6782 18.786 18.7023 18.7505C18.7214 18.7223 18.7776 18.6445 18.8871 18.5692L20.0204 20.2172C20.3129 20.016 20.4583 19.7231 20.523 19.5547C20.5819 19.4011 20.6941 19.041 20.5632 18.6483L18.6658 19.2806ZM18.2807 18.2689C18.433 18.6424 18.5605 18.9563 18.6633 19.2732L20.5656 18.6557C20.4363 18.2573 20.2801 17.8752 20.1328 17.5139L18.2807 18.2689ZM12.0471 17.3252H14.5919V15.3252H12.0471V17.3252ZM11.1997 17.3237C11.4815 17.3245 11.7646 17.3252 12.0471 17.3252V15.3252C11.7677 15.3252 11.4872 15.3245 11.205 15.3237L11.1997 17.3237ZM9.51699 17.3252C10.0736 17.3208 10.634 17.3222 11.1997 17.3237L11.205 15.3237C10.6411 15.3222 10.0701 15.3207 9.50111 15.3252L9.51699 17.3252ZM8.05394 16.0336C8.05855 16.2318 8.10213 16.4637 8.23293 16.6868C8.36808 16.9173 8.55761 17.0724 8.74764 17.1684C9.06981 17.3311 9.4079 17.3252 9.50905 17.3252V15.3252C9.46624 15.3252 9.46156 15.3235 9.47434 15.3252C9.48556 15.3267 9.55637 15.3362 9.64934 15.3832C9.75482 15.4365 9.87362 15.5309 9.95833 15.6754C10.0387 15.8125 10.0521 15.9329 10.0534 15.9871L8.05394 16.0336ZM9.51575 14.6553C9.35354 14.6553 9.00116 14.6664 8.66976 14.8679C8.23374 15.133 8.04375 15.585 8.05393 16.0331L10.0534 15.9877C10.0546 16.0388 10.0471 16.1493 9.98188 16.2793C9.91322 16.416 9.81021 16.5151 9.7088 16.5768C9.61741 16.6324 9.54324 16.6484 9.51995 16.6527C9.49532 16.6572 9.49025 16.6553 9.51575 16.6553V14.6553ZM14.5986 14.6553H9.51575V16.6553H14.5986V14.6553ZM16.0674 16.0037C16.0674 15.8012 16.0278 15.5716 15.9078 15.3495C15.7848 15.1219 15.6082 14.9596 15.4232 14.8529C15.0955 14.6637 14.7513 14.6553 14.5986 14.6553V16.6553C14.6259 16.6553 14.6232 16.6572 14.6019 16.6535C14.5819 16.65 14.5119 16.6361 14.4236 16.5851C14.3256 16.5286 14.221 16.4349 14.1483 16.3003C14.0785 16.1712 14.0674 16.0588 14.0674 16.0037H16.0674ZM14.5919 17.3252C14.6687 17.3252 15.0168 17.3374 15.341 17.1859C15.5382 17.0937 15.7431 16.9369 15.8877 16.6914C16.0271 16.4548 16.0674 16.2089 16.0674 16.0037H14.0674C14.0674 15.9525 14.0776 15.8238 14.1644 15.6764C14.2565 15.5201 14.3864 15.4244 14.4941 15.3741C14.5871 15.3306 14.6551 15.3244 14.6565 15.3242C14.6595 15.3239 14.6478 15.3252 14.5919 15.3252V17.3252Z" fill="#E50914" mask="url(#path-1-inside-1_1296_2646)"/>
</g>
</g>
<defs>
<filter id="filter0_b_1296_2646" x="-10.3262" y="-7.91992" width="44.7734" height="39.3625" filterUnits="userSpaceOnUse" color-interpolation-filters="sRGB">
<feFlood flood-opacity="0" result="BackgroundImageFix"/>
<feGaussianBlur in="BackgroundImageFix" stdDeviation="6"/>
<feComposite in2="SourceAlpha" operator="in" result="effect1_backgroundBlur_1296_2646"/>
<feBlend mode="normal" in="SourceGraphic" in2="effect1_backgroundBlur_1296_2646" result="shape"/>
</filter>
<clipPath id="clip0_1296_2646">
<rect width="20.76" height="15.36" fill="white" transform="translate(1.67969 4.08008)"/>
</clipPath>
</defs>
</svg>
